<?xml version="1.0"?>
<svg xmlns="http://www.w3.org/2000/svg" xmlns:xlink="http://www.w3.org/1999/xlink" version="1.1" viewBox="0 0 252 252" width="50px" height="50px"><g transform="translate(9.198,9.198) scale(0.927,0.927)"><g fill="none" fill-rule="nonzero" stroke="none" stroke-width="none" stroke-linecap="butt" stroke-linejoin="none" stroke-miterlimit="10" stroke-dasharray="" stroke-dashoffset="0" font-family="none" font-weight="none" font-size="none" text-anchor="none" style="mix-blend-mode: normal"><g fill="#feda4a" stroke="#f1c40f" stroke-width="20" stroke-linejoin="round"><g id="surface1 1"><path d="M160.90594,60.48l2.34281,6.79219l3.07125,8.91844v-15.71063h40.32c13.34813,0 24.19594,10.84781 24.19594,24.19594c0,3.95719 -0.96469,7.73719 -2.69719,11.08406h18.82125v60.48h-12.69844l1.4175,1.75219l0.64969,0.7875l0.4725,0.945c1.27969,2.18531 2.59875,5.02031 2.59875,9.6075c0,12.65906 -9.52875,22.18781 -22.18781,22.18781h-41.81625c-4.05562,0 -7.14656,-1.45687 -9.07594,-2.75625v2.75625h-56.5425l-2.3625,-6.75281l-1.18125,-3.32719h-4.82344l-1.16156,3.32719l-2.3625,6.75281h-50.12437l-2.3625,-6.79219l-0.03938,-0.13781l-0.03937,0.13781l-2.3625,6.79219h-23.01469l-2.28375,-6.89062l-15.12,-45.36l-2.53969,-7.59938v-35.91h35.20125c-0.66937,-0.945 -1.18125,-1.67344 -1.43719,-2.02781l-0.53156,-0.64969l-0.39375,-0.80719c-1.27969,-2.18531 -2.59875,-5.02031 -2.59875,-9.6075c0,-12.4425 9.52875,-22.18781 21.67594,-22.18781zM40.32,82.66781c0,3.01219 1.00406,4.01625 1.51594,5.04c1.51594,2.00812 9.05625,13.09219 9.05625,13.09219c0,0.51188 0.51188,1.00406 0.51188,1.51594c0.51187,2.00813 -1.00406,3.52406 -3.01219,3.52406h-38.31188v10.08h44.35594c6.55594,0 12.08813,-5.04 12.08813,-12.10781c0,-3.01219 -1.00406,-4.01625 -1.49625,-5.04l-9.58781,-13.09219c0,-0.51187 -0.49219,-1.00406 -0.49219,-1.51594c0,-2.00813 1.49625,-3.52406 3.50437,-3.52406h27.22781v35.28h15.12v-35.28h20.16v-10.08h-69.04406c-6.55594,0 -11.59594,5.04 -11.59594,12.10781zM117.94781,115.92h12.6l3.50437,-10.08h19.17563l3.50437,10.08h12.6l-15.61219,-45.36h-21.16406zM176.4,115.92h15.12c0,0 0,-10.71 0,-15.67125c3.32719,3.15 11.20219,10.63125 15.12,14.15531c0.51188,0.51187 2.02781,1.51594 4.03594,1.51594h26.20406v-10.08h-17.14781c-2.00812,0 -3.01219,-1.00406 -4.01625,-2.02781c-2.52,-3.01219 -5.55187,-5.53219 -5.55187,-5.53219c6.04406,-1.51594 10.59187,-7.04812 10.59187,-13.60406c0,-8.07187 -6.55594,-14.11594 -14.11594,-14.11594h-30.24zM149.17219,95.76h-12.08812l6.06375,-18.13219zM203.11594,80.64c3.03188,0 5.55188,2.00813 5.55188,5.04c0,3.03188 -2.52,5.04 -5.55188,5.04h-11.59594v-10.08zM73.15875,92.84625l0.4725,0.63l0.39375,0.72844c0.55125,0.96469 1.12219,2.02781 1.575,3.32719v-6.81188h-3.99656zM110.88,104.95406l4.58719,-14.23406h-4.58719zM54.43594,126h21.16406v-15.435c-2.79562,9.03656 -11.10375,15.435 -21.16406,15.435zM140.03719,119.24719l-2.3625,6.75281h11.93063l-2.3625,-6.75281l-1.18125,-3.32719h-4.84313zM201.6,126h-29.74781c9.25313,0 17.28563,5.1975 21.38063,12.83625c3.58312,-7.59937 11.1825,-12.83625 19.96312,-12.83625h-2.52c-4.07531,0 -7.14656,-1.47656 -9.07594,-2.77594zM123.97219,132.89063l7.06781,21.20344v-28.09406h-9.37125zM27.20813,181.44h8.58375l9.56812,-27.72l9.58781,27.72h8.54437l15.12,-45.36h-13.09219l-6.55594,19.66781l-6.53625,-19.66781h-14.11594l-7.06781,19.66781l-6.55594,-19.66781h-12.6zM78.61219,181.44h12.10781l3.52406,-10.08h19.15594l3.52406,10.08h12.6l-15.12,-45.36h-21.16406zM141.12,181.44h15.12v-15.69094c3.3075,3.13031 11.20219,10.65094 15.12,14.175c0.51188,0.51187 2.02781,1.51594 4.03594,1.51594h41.81625c6.55594,0 12.10781,-4.54781 12.10781,-12.10781c0,-3.01219 -1.00406,-4.01625 -1.51594,-5.04l-10.08,-12.6c0,-0.49219 -0.51188,-0.98437 -0.51188,-1.49625c0,-2.00812 1.51594,-4.03594 3.03188,-4.03594h16.63594v-10.08h-23.68406c-6.55594,0 -12.08812,5.55188 -12.08812,12.6c0,3.03188 0.98437,4.03594 1.49625,5.04c1.51594,1.51594 11.10375,12.6 11.10375,12.6c0,0.51188 0.49219,1.00406 0.49219,1.51594c0,2.00813 -1.51594,3.52406 -3.01219,3.52406h-26.73563c-2.00812,0 -3.01219,-1.00406 -4.01625,-2.02781c-2.52,-3.01219 -5.04,-5.53219 -5.04,-5.53219c6.04406,-1.51594 10.59188,-7.04812 10.59188,-13.60406c0,-8.07187 -6.57563,-14.11594 -14.13563,-14.11594h-30.73219zM109.87594,161.28h-12.08812l6.02437,-18.13219zM167.83594,146.16c3.03188,0 5.55188,2.00813 5.55188,5.04c0,3.03188 -2.52,5.04 -5.55188,5.04h-11.59594v-10.08zM193.37063,161.28h2.50031c-0.1575,-0.19687 -0.29531,-0.33469 -0.39375,-0.43312l-1.12219,-1.08281l-0.1575,-0.29531c-0.23625,0.61031 -0.53156,1.22063 -0.82687,1.81125z"/></g></g><path d="M0,252v-252h252v252z" fill="none" stroke="none" stroke-width="1" stroke-linejoin="miter"/><g fill="#feda4a" stroke="none" stroke-width="1" stroke-linejoin="miter"><g id="surface1"><path d="M51.91594,60.48c-12.14719,0 -21.67594,9.74531 -21.67594,22.18781c0,4.58719 1.31906,7.42219 2.59875,9.6075l0.39375,0.80719l0.53156,0.64969c0.25594,0.35438 0.76781,1.08281 1.43719,2.02781h-35.20125v35.91l2.53969,7.59938l15.12,45.36l2.28375,6.89062h23.01469l2.3625,-6.79219l0.03937,-0.13781l0.03938,0.13781l2.3625,6.79219h50.12437l2.3625,-6.75281l1.16156,-3.32719h4.82344l1.18125,3.32719l2.3625,6.75281h56.5425v-2.75625c1.92938,1.29938 5.02031,2.75625 9.07594,2.75625h41.81625c12.65906,0 22.18781,-9.52875 22.18781,-22.18781c0,-4.58719 -1.31906,-7.42219 -2.59875,-9.6075l-0.4725,-0.945l-0.64969,-0.7875l-1.4175,-1.75219h12.69844v-60.48h-18.82125c1.7325,-3.34687 2.69719,-7.12687 2.69719,-11.08406c0,-13.34812 -10.84781,-24.19594 -24.19594,-24.19594h-40.32v15.71063l-3.07125,-8.91844l-2.34281,-6.79219zM51.91594,70.56h69.04406v10.08h-20.16v35.28h-15.12v-35.28h-27.22781c-2.00812,0 -3.50437,1.51594 -3.50437,3.52406c0,0.51187 0.49219,1.00406 0.49219,1.51594l9.58781,13.09219c0.49219,1.02375 1.49625,2.02781 1.49625,5.04c0,7.06781 -5.53219,12.10781 -12.08813,12.10781h-44.35594v-10.08h38.31188c2.00812,0 3.52406,-1.51594 3.01219,-3.52406c0,-0.51187 -0.51188,-1.00406 -0.51188,-1.51594c0,0 -7.54031,-11.08406 -9.05625,-13.09219c-0.51187,-1.02375 -1.51594,-2.02781 -1.51594,-5.04c0,-7.06781 5.04,-12.10781 11.59594,-12.10781zM132.55594,70.56h21.16406l15.61219,45.36h-12.6l-3.50437,-10.08h-19.17563l-3.50437,10.08h-12.6zM176.4,70.56h30.24c7.56,0 14.11594,6.04406 14.11594,14.11594c0,6.55594 -4.54781,12.08813 -10.59187,13.60406c0,0 3.03187,2.52 5.55187,5.53219c1.00406,1.02375 2.00813,2.02781 4.01625,2.02781h17.14781v10.08h-26.20406c-2.00812,0 -3.52406,-1.00406 -4.03594,-1.51594c-3.91781,-3.52406 -11.79281,-11.00531 -15.12,-14.15531c0,4.96125 0,15.67125 0,15.67125h-15.12zM143.14781,77.62781l-6.06375,18.13219h12.08812zM191.52,80.64v10.08h11.59594c3.03188,0 5.55188,-2.00812 5.55188,-5.04c0,-3.03187 -2.52,-5.04 -5.55188,-5.04zM71.60344,90.72h3.99656v6.81188c-0.45281,-1.29938 -1.02375,-2.3625 -1.575,-3.32719l-0.39375,-0.72844l-0.4725,-0.63zM110.88,90.72h4.58719l-4.58719,14.23406zM75.6,110.565v15.435h-21.16406c10.06031,0 18.36844,-6.39844 21.16406,-15.435zM141.21844,115.92h4.84313l1.18125,3.32719l2.3625,6.75281h-11.93063l2.3625,-6.75281zM201.6,123.22406c1.92938,1.29937 5.00063,2.77594 9.07594,2.77594h2.52c-8.78062,0 -16.38,5.23688 -19.96312,12.83625c-4.095,-7.63875 -12.1275,-12.83625 -21.38063,-12.83625h29.74781zM121.66875,126h9.37125v28.09406l-7.06781,-21.20344zM12.08813,136.08h12.6l6.55594,19.66781l7.06781,-19.66781h14.11594l6.53625,19.66781l6.55594,-19.66781h13.09219l-15.12,45.36h-8.54437l-9.58781,-27.72l-9.56812,27.72h-8.58375zM93.24,136.08h21.16406l15.12,45.36h-12.6l-3.52406,-10.08h-19.15594l-3.52406,10.08h-12.10781zM141.12,136.08h30.73219c7.56,0 14.13563,6.04406 14.13563,14.11594c0,6.55594 -4.54781,12.08813 -10.59188,13.60406c0,0 2.52,2.52 5.04,5.53219c1.00406,1.02375 2.00813,2.02781 4.01625,2.02781h26.73563c1.49625,0 3.01219,-1.51594 3.01219,-3.52406c0,-0.51187 -0.49219,-1.00406 -0.49219,-1.51594c0,0 -9.58781,-11.08406 -11.10375,-12.6c-0.51188,-1.00406 -1.49625,-2.00812 -1.49625,-5.04c0,-7.04812 5.53219,-12.6 12.08812,-12.6h23.68406v10.08h-16.63594c-1.51594,0 -3.03188,2.02781 -3.03188,4.03594c0,0.51188 0.51188,1.00406 0.51188,1.49625l10.08,12.6c0.51187,1.02375 1.51594,2.02781 1.51594,5.04c0,7.56 -5.55187,12.10781 -12.10781,12.10781h-41.81625c-2.00812,0 -3.52406,-1.00406 -4.03594,-1.51594c-3.91781,-3.52406 -11.8125,-11.04469 -15.12,-14.175v15.69094h-15.12zM103.81219,143.14781l-6.02437,18.13219h12.08812zM156.24,146.16v10.08h11.59594c3.03188,0 5.55188,-2.00812 5.55188,-5.04c0,-3.03187 -2.52,-5.04 -5.55188,-5.04zM194.1975,159.46875l0.1575,0.29531l1.12219,1.08281c0.09844,0.09844 0.23625,0.23625 0.39375,0.43312h-2.50031c0.29531,-0.59062 0.59062,-1.20094 0.82687,-1.81125z"/></g></g><path d="" fill="none" stroke="none" stroke-width="1" stroke-linejoin="miter"/><path d="" fill="none" stroke="none" stroke-width="1" stroke-linejoin="miter"/></g></g></svg>
